HIERARCHY
ROOT Hips
{
	OFFSET 0.000000 0.000000 0.000000
	CHANNELS 6 Xposition Yposition Zposition Zrotation Yrotation Xrotation 
	JOINT LHipJoint
	{
		OFFSET 0.000000 0.000000 0.000000
		CHANNELS 3 Zrotation Yrotation Xrotation
		JOINT LeftUpLeg
		{
			OFFSET 1.363060 -1.794630 0.839290
			CHANNELS 3 Zrotation Yrotation Xrotation
			JOINT LeftLeg
			{
				OFFSET 2.448110 -6.726130 0.000000
				CHANNELS 3 Zrotation Yrotation Xrotation
				JOINT LeftFoot
				{
					OFFSET 2.562200 -7.039590 0.000000
					CHANNELS 3 Zrotation Yrotation Xrotation
					JOINT LeftToeBase
					{
						OFFSET 0.157640 -0.433110 2.322550
						CHANNELS 3 Zrotation Yrotation Xrotation
						End Site
						{
							OFFSET 0.000000 0.000000 0.000000
						}
					}
				}
			}
		}
	}
	JOINT RHipJoint
	{
		OFFSET 0.000000 0.000000 0.000000
		CHANNELS 3 Zrotation Yrotation Xrotation
		JOINT RightUpLeg
		{
			OFFSET -1.305520 -1.794630 0.839290
			CHANNELS 3 Zrotation Yrotation Xrotation
			JOINT RightLeg
			{
				OFFSET -2.542530 -6.985550 0.000000
				CHANNELS 3 Zrotation Yrotation Xrotation
				JOINT RightFoot
				{
					OFFSET -2.568260 -7.056230 0.000000
					CHANNELS 3 Zrotation Yrotation Xrotation
					JOINT RightToeBase
					{
						OFFSET -0.164730 -0.452590 2.363150
						CHANNELS 3 Zrotation Yrotation Xrotation
						End Site
						{
							OFFSET 0.000000 0.000000 0.000000
						}
					}
				}
			}
		}
	}
	JOINT LowerBack
	{
		OFFSET 0.000000 0.000000 0.000000
		CHANNELS 3 Zrotation Yrotation Xrotation
		JOINT Spine
		{
			OFFSET 0.028270 2.035590 -0.193380
			CHANNELS 3 Zrotation Yrotation Xrotation
			JOINT Spine1
			{
				OFFSET 0.056720 2.048850 -0.042750
				CHANNELS 3 Zrotation Yrotation Xrotation
				JOINT Neck
				{
					OFFSET 0.000000 0.000000 0.000000
					CHANNELS 3 Zrotation Yrotation Xrotation
					JOINT Neck1
					{
						OFFSET -0.054170 1.746240 0.172020
						CHANNELS 3 Zrotation Yrotation Xrotation
						JOINT Head
						{
							OFFSET 0.104070 1.761360 -0.123970
							CHANNELS 3 Zrotation Yrotation Xrotation
							End Site
							{
								OFFSET 0.000000 0.000000 0.000000
							}
						}
					}
				}
				JOINT LeftShoulder
				{
					OFFSET 0.000000 0.000000 0.000000
					CHANNELS 3 Zrotation Yrotation Xrotation
					JOINT LeftArm
					{
						OFFSET 3.362410 1.200890 -0.311210
						CHANNELS 3 Zrotation Yrotation Xrotation
						JOINT LeftForeArm
						{
							OFFSET 4.983000 -0.000000 -0.000000
							CHANNELS 3 Zrotation Yrotation Xrotation
							JOINT LeftHand
							{
								OFFSET 3.483560 -0.000000 -0.000000
								CHANNELS 3 Zrotation Yrotation Xrotation
								JOINT LeftFingerBase
								{
									OFFSET 0.000000 0.000000 0.000000
									CHANNELS 3 Zrotation Yrotation Xrotation
									JOINT LeftHandIndex1
									{
										OFFSET 0.715260 -0.000000 -0.000000
										CHANNELS 3 Zrotation Yrotation Xrotation
										End Site
										{
											OFFSET 0.000000 0.000000 0.000000
										}
									}
								}
								JOINT LThumb
								{
									OFFSET 0.000000 0.000000 0.000000
									CHANNELS 3 Zrotation Yrotation Xrotation
									End Site
									{
										OFFSET 0.000000 0.000000 0.000000
									}
								}
							}
						}
					}
				}
				JOINT RightShoulder
				{
					OFFSET 0.000000 0.000000 0.000000
					CHANNELS 3 Zrotation Yrotation Xrotation
					JOINT RightArm
					{
						OFFSET -3.136600 1.374050 -0.404650
						CHANNELS 3 Zrotation Yrotation Xrotation
						JOINT RightForeArm
						{
							OFFSET -5.241900 -0.000000 -0.000000
							CHANNELS 3 Zrotation Yrotation Xrotation
							JOINT RightHand
							{
								OFFSET -3.444170 -0.000000 -0.000000
								CHANNELS 3 Zrotation Yrotation Xrotation
								JOINT RightFingerBase
								{
									OFFSET 0.000000 0.000000 0.000000
									CHANNELS 3 Zrotation Yrotation Xrotation
									JOINT RightHandIndex1
									{
										OFFSET -0.622530 -0.000000 -0.000000
										CHANNELS 3 Zrotation Yrotation Xrotation
										End Site
										{
											OFFSET 0.000000 0.000000 0.000000
										}
									}
								}
								JOINT RThumb
								{
									OFFSET 0.000000 0.000000 0.000000
									CHANNELS 3 Zrotation Yrotation Xrotation
									End Site
									{
										OFFSET 0.000000 0.000000 0.000000
									}
								}
							}
						}
					}
				}
			}
		}
	}
}
MOTION
Frames: 4
Frame Time: 0.008333
3.218570 17.094968 1.454556 9.221085 29.458145 23.864967 -11.317296 5.891968 -0.873816 -17.754186 23.798945 -11.851755 -3.728366 0.733884 17.928670 -0.262355 -3.867381 4.393826 -0.455400 -0.000000 -66.477900 7.894401 -1.481995 5.307194 17.829168 1.905112 -34.618571 3.484467 2.691910 0.359796 -2.201380 -8.198465 -6.990988 -1.166200 -0.000001 -11.431500 4.222842 -4.803347 -5.282643 0.490391 -5.319188 -3.560586 -6.341366 -5.329288 1.352348 7.332081 -16.642397 -8.536028 -4.089955 -0.302763 -0.231905 0.000000 0.000000 0.000000 3.890569 4.444932 1.002878 -40.137996 -11.765990 1.813118 -0.213906 -88.365956 -0.062791 9.362616 1.521751 0.098520 -0.238329 0.386359 -0.000000 0.000000 0.000000 0.000000 0.000000 0.000000 0.000000 15.873960 -14.202267 -0.520619 66.649831 -0.137001 17.731097 0.337547 80.781221 0.015226 3.858297 -1.160760 -0.031706 -0.014330 -0.198454 -0.000000 0.000000 0.000000 0.000000 0.000000 0.000000 0.000000 
3.305791 17.065719 1.578086 9.563799 29.496938 24.231723 -11.393158 5.968533 -0.745710 -17.676633 23.415001 -11.906455 -3.659147 0.824458 18.763473 -0.285313 -4.346363 4.984348 -0.574000 0.000000 -68.216200 7.871670 -1.469842 5.552464 17.170749 2.696913 -34.393266 3.342944 2.735204 0.277449 -2.334983 -8.712913 -7.186252 -1.184300 0.000000 -6.090800 4.433942 -4.888713 -5.661457 0.566308 -5.434515 -3.635321 -6.270298 -5.450851 1.370300 7.090586 -16.871752 -8.681303 -4.115453 -0.303715 -0.272554 0.000000 0.000000 0.000000 3.606610 4.375331 1.006911 -40.652883 -11.535007 1.968035 -0.221851 -88.595530 -0.062197 9.292708 1.516480 0.097406 -0.238029 0.386794 -0.000000 0.000000 0.000000 0.000000 0.000000 0.000000 0.000000 15.790042 -14.435843 -0.497782 66.358019 -0.322716 17.330582 0.344579 80.714944 0.015063 3.846162 -1.164823 -0.031794 -0.011365 -0.197219 -0.000000 0.000000 0.000000 0.000000 0.000000 0.000000 0.000000 
3.396303 17.040123 1.703159 9.851261 29.532216 24.617208 -11.496791 6.035163 -0.593629 -17.558249 22.991496 -12.084098 -3.575550 0.915398 19.655708 -0.301886 -4.814740 5.663395 -0.708300 -0.000001 -69.982200 7.819801 -1.474851 5.820252 16.518457 3.554277 -34.324191 3.195431 2.752802 0.462019 -2.512580 -9.343294 -7.514625 -1.187100 0.000000 -1.011499 4.722805 -4.947051 -6.095231 0.657413 -5.532388 -3.723978 -6.202720 -5.555211 1.383857 6.837026 -17.069799 -8.824979 -4.148596 -0.305335 -0.313668 0.000000 0.000000 0.000000 3.223056 4.328042 1.019502 -41.217636 -11.346614 2.205051 -0.235603 -88.747378 -0.061225 9.196005 1.463058 0.092103 -0.237696 0.387395 -0.000000 0.000000 0.000000 0.000000 0.000000 0.000000 0.000000 15.725448 -14.626475 -0.470266 66.011619 -0.496578 16.888265 0.355641 80.587720 0.014788 3.808915 -1.182729 -0.032084 -0.007812 -0.195726 -0.000000 0.000000 0.000000 0.000000 0.000000 0.000000 0.000000 
3.489286 17.018978 1.829312 10.077097 29.546721 25.004486 -11.626275 6.091820 -0.425098 -17.394853 22.557607 -12.377071 -3.477666 1.006195 20.603879 -0.311279 -5.275358 6.438196 -0.861900 -0.000000 -71.781300 7.741488 -1.498624 6.095878 15.906594 4.431795 -34.411270 3.048357 2.739438 0.936768 -2.721724 -10.037026 -7.956000 178.831500 -0.000000 -3.362000 5.079494 -4.975180 -6.563043 0.761054 -5.608708 -3.820973 -6.138039 -5.637972 1.397802 6.581823 -17.243916 -8.969720 -4.187805 -0.307444 -0.356229 0.000000 0.000000 0.000000 2.754826 4.324513 1.036919 -41.847805 -11.226871 2.525521 -0.256580 -88.790768 -0.059899 9.075244 1.357183 0.082409 -0.237291 0.388262 -0.000000 0.000000 0.000000 0.000000 0.000000 0.000000 0.000000 15.689664 -14.783259 -0.438967 65.614432 -0.624490 16.423781 0.372272 80.375736 0.014352 3.734171 -1.216605 -0.032572 -0.003458 -0.193904 -0.000000 0.000000 0.000000 0.000000 0.000000 0.000000 0.000000 
